<svg width="32" height="32" viewBox="0 0 32 32" fill="none" xmlns="http://www.w3.org/2000/svg">
<path d="M30.0005 5.99953C29.9973 4.96227 29.5906 3.96696 28.8664 3.22436C28.1422 2.48177 27.1574 2.05022 26.1205 2.02111C25.0837 1.99199 24.0762 2.3676 23.3115 3.06838C22.5467 3.76916 22.0848 4.74008 22.0235 5.77553L9.58647 8.26253C9.29568 7.65815 8.85724 7.13683 8.31165 6.74674C7.76607 6.35665 7.13096 6.11038 6.46502 6.0307C5.79907 5.95101 5.12379 6.04049 4.50157 6.29085C3.87936 6.54121 3.33029 6.94437 2.90512 7.46309C2.47996 7.9818 2.19241 8.59932 2.06905 9.25857C1.94569 9.91782 1.9905 10.5975 2.19935 11.2349C2.4082 11.8722 2.77434 12.4466 3.26393 12.905C3.75352 13.3634 4.35077 13.691 5.00047 13.8575V22.1415C4.31845 22.3166 3.6949 22.669 3.19309 23.163C2.69129 23.6569 2.3291 24.2748 2.14328 24.954C1.95746 25.6332 1.95464 26.3494 2.13509 27.03C2.31554 27.7106 2.67285 28.3314 3.17074 28.8293C3.66863 29.3272 4.28939 29.6845 4.97 29.8649C5.65061 30.0454 6.36685 30.0425 7.04601 29.8567C7.72518 29.6709 8.34309 29.3087 8.83704 28.8069C9.33099 28.3051 9.68339 27.6815 9.85847 26.9995H18.1425C18.3087 27.6497 18.6362 28.2474 19.0946 28.7374C19.5531 29.2274 20.1277 29.594 20.7653 29.8031C21.4029 30.0122 22.083 30.0572 22.7426 29.9339C23.4022 29.8105 24.0201 29.5229 24.539 29.0975C25.058 28.6721 25.4614 28.1227 25.7118 27.5001C25.9622 26.8776 26.0516 26.2019 25.9717 25.5356C25.8918 24.8694 25.6452 24.234 25.2546 23.6883C24.8641 23.1426 24.3423 22.7041 23.7375 22.4135L26.2245 9.97653C27.2426 9.92089 28.2009 9.47796 28.9029 8.73853C29.605 7.9991 29.9976 7.01916 30.0005 5.99953V5.99953ZM26.0005 3.99953C26.396 3.99953 26.7827 4.11683 27.1116 4.3366C27.4405 4.55636 27.6968 4.86872 27.8482 5.23417C27.9996 5.59962 28.0392 6.00175 27.962 6.38972C27.8849 6.77768 27.6944 7.13404 27.4147 7.41375C27.135 7.69345 26.7786 7.88393 26.3906 7.96111C26.0027 8.03828 25.6006 7.99867 25.2351 7.84729C24.8696 7.69592 24.5573 7.43957 24.3375 7.11067C24.1178 6.78178 24.0005 6.3951 24.0005 5.99953C24.001 5.46926 24.2119 4.96086 24.5868 4.58591C24.9618 4.21095 25.4702 4.00006 26.0005 3.99953V3.99953ZM4.00047 9.99953C4.00047 9.60397 4.11776 9.21729 4.33753 8.88839C4.55729 8.5595 4.86965 8.30315 5.2351 8.15178C5.60055 8.0004 6.00268 7.96079 6.39065 8.03796C6.77861 8.11513 7.13497 8.30562 7.41468 8.58532C7.69439 8.86503 7.88487 9.22139 7.96204 9.60935C8.03921 9.99732 7.9996 10.3994 7.84823 10.7649C7.69685 11.1304 7.4405 11.4427 7.11161 11.6625C6.78271 11.8822 6.39603 11.9995 6.00047 11.9995C5.4702 11.999 4.9618 11.7881 4.58684 11.4132C4.21188 11.0382 4.001 10.5298 4.00047 9.99953ZM6.00047 27.9995C5.6049 27.9995 5.21822 27.8822 4.88933 27.6625C4.56043 27.4427 4.30408 27.1304 4.15271 26.7649C4.00133 26.3994 3.96172 25.9973 4.0389 25.6094C4.11607 25.2214 4.30655 24.865 4.58625 24.5853C4.86596 24.3056 5.22232 24.1151 5.61029 24.038C5.99825 23.9608 6.40038 24.0004 6.76583 24.1518C7.13129 24.3032 7.44364 24.5595 7.66341 24.8884C7.88317 25.2173 8.00047 25.604 8.00047 25.9995C7.99994 26.5298 7.78905 27.0382 7.41409 27.4132C7.03914 27.7881 6.53074 27.999 6.00047 27.9995V27.9995ZM18.1425 24.9995H9.85847C9.67934 24.312 9.32006 23.6847 8.81768 23.1823C8.31529 22.6799 7.68799 22.3207 7.00047 22.1415V13.8575C7.81751 13.645 8.54601 13.1786 9.08101 12.5255C9.61602 11.8725 9.92991 11.0664 9.97747 10.2235L22.4145 7.73653C22.8064 8.54275 23.4575 9.19418 24.2635 9.58653L21.7765 22.0225C20.9336 22.0701 20.1275 22.384 19.4745 22.919C18.8214 23.454 18.355 24.1825 18.1425 24.9995V24.9995ZM22.0005 27.9995C21.6049 27.9995 21.2182 27.8822 20.8893 27.6625C20.5604 27.4427 20.3041 27.1304 20.1527 26.7649C20.0013 26.3994 19.9617 25.9973 20.0389 25.6094C20.1161 25.2214 20.3065 24.865 20.5863 24.5853C20.866 24.3056 21.2223 24.1151 21.6103 24.038C21.9982 23.9608 22.4004 24.0004 22.7658 24.1518C23.1313 24.3032 23.4436 24.5595 23.6634 24.8884C23.8832 25.2173 24.0005 25.604 24.0005 25.9995C23.9999 26.5298 23.7891 27.0382 23.4141 27.4132C23.0391 27.7881 22.5307 27.999 22.0005 27.9995V27.9995Z" fill="white"/>
</svg>
