<svg width="24" height="24" viewBox="0 0 24 24" fill="none" xmlns="http://www.w3.org/2000/svg">
<path d="M6.04956 8.05C4.73837 9.36368 4.00195 11.1439 4.00195 13C4.00195 14.8561 4.73837 16.6363 6.04956 17.95C7.41956 19.32 9.20956 20 10.9996 20C12.7896 20 14.5796 19.32 15.9496 17.95C19.4296 14.47 19.9996 4 19.9996 4C19.9996 4 9.52956 4.57 6.04956 8.05ZM14.5396 16.54C13.5896 17.48 12.3396 18 10.9996 18C10.1096 18 9.26956 17.75 8.51956 17.32C9.43956 14.44 11.1396 11.91 13.3996 10C10.7696 11.36 8.55956 13.46 7.02956 16C5.54956 14.04 5.67956 11.25 7.46956 9.46C9.20956 7.72 14.0396 6.65 17.7996 6.2C17.3496 9.96 16.2796 14.79 14.5396 16.54V16.54Z" fill="white"/>
</svg>
